<?xml version="1.0" encoding="UTF-8"?>
<svg xmlns="http://www.w3.org/2000/svg" version="1.1" width="512px" height="512px" style="shape-rendering:geometricPrecision; text-rendering:geometricPrecision; image-rendering:optimizeQuality; fill-rule:evenodd; clip-rule:evenodd" xmlns:xlink="http://www.w3.org/1999/xlink">
<g><path style="opacity:0" fill="#000000" d="M -0.5,-0.5 C 170.167,-0.5 340.833,-0.5 511.5,-0.5C 511.5,170.167 511.5,340.833 511.5,511.5C 340.833,511.5 170.167,511.5 -0.5,511.5C -0.5,340.833 -0.5,170.167 -0.5,-0.5 Z"/></g>
<g><path style="opacity:1" fill="#f6f7f7" d="M 210.5,111.5 C 200.833,111.5 191.167,111.5 181.5,111.5C 185.268,108.775 189.268,106.275 193.5,104C 173.99,92.484 154.49,80.984 135,69.5C 115.931,80.6195 96.7643,91.6195 77.5,102.5C 76.2888,103.274 76.2888,104.107 77.5,105C 81.5599,106.689 85.2266,108.856 88.5,111.5C 78.8333,111.5 69.1667,111.5 59.5,111.5C 59.2065,107.563 59.5399,103.73 60.5,100C 85.1053,85.447 109.939,71.2803 135,57.5C 159.823,71.6504 184.657,85.817 209.5,100C 210.46,103.73 210.793,107.563 210.5,111.5 Z"/></g>
<g><path style="opacity:0" fill="#020203" d="M 181.5,111.5 C 180.508,111.328 179.842,111.662 179.5,112.5C 164.786,120.943 149.953,129.276 135,137.5C 120.542,129.356 106.042,121.356 91.5,113.5C 91.0269,112.094 90.0269,111.427 88.5,111.5C 85.2266,108.856 81.5599,106.689 77.5,105C 76.2888,104.107 76.2888,103.274 77.5,102.5C 96.7643,91.6195 115.931,80.6195 135,69.5C 154.49,80.984 173.99,92.484 193.5,104C 189.268,106.275 185.268,108.775 181.5,111.5 Z"/></g>
<g><path style="opacity:1" fill="#f8f8f8" d="M 225.5,102.5 C 230.046,102.268 234.379,103.101 238.5,105C 298.009,128.473 357.675,151.806 417.5,175C 426.238,189.564 430.238,205.397 429.5,222.5C 428.65,247.222 421.817,270.222 409,291.5C 399.555,307.87 388.055,322.703 374.5,336C 367.856,341.307 360.689,345.807 353,349.5C 351.347,349.18 350.347,348.18 350,346.5C 348.361,343.258 347.361,339.924 347,336.5C 366.371,323.807 380.037,306.474 388,284.5C 397.861,261.398 401.528,237.398 399,212.5C 396.574,195.616 389.741,180.783 378.5,168C 325.486,149.219 272.653,130.052 220,110.5C 218.872,108.655 218.372,106.655 218.5,104.5C 221.067,104.279 223.401,103.612 225.5,102.5 Z"/></g>
<g><path style="opacity:1" fill="#1f52bd" d="M 59.5,111.5 C 69.1667,111.5 78.8333,111.5 88.5,111.5C 90.0269,111.427 91.0269,112.094 91.5,113.5C 85.31,113.177 79.31,113.51 73.5,114.5C 72.5041,114.586 71.6708,114.252 71,113.5C 70.5,133.497 70.3334,153.497 70.5,173.5C 66.8333,173.5 63.1667,173.5 59.5,173.5C 59.5,152.833 59.5,132.167 59.5,111.5 Z"/></g>
<g><path style="opacity:1" fill="#0158de" d="M 60.5,112.5 C 63.5,112.5 66.5,112.5 69.5,112.5C 69.5,132.5 69.5,152.5 69.5,172.5C 66.5,172.5 63.5,172.5 60.5,172.5C 60.5,152.5 60.5,132.5 60.5,112.5 Z"/></g>
<g><path style="opacity:0" fill="#010001" d="M 73.5,114.5 C 92.1667,125.5 110.833,136.5 129.5,147.5C 129.5,156.167 129.5,164.833 129.5,173.5C 129.5,185.833 129.5,198.167 129.5,210.5C 110.221,199.524 90.888,188.524 71.5,177.5C 70.5713,176.311 70.238,174.978 70.5,173.5C 70.3334,153.497 70.5,133.497 71,113.5C 71.6708,114.252 72.5041,114.586 73.5,114.5 Z"/></g>
<g><path style="opacity:1" fill="#0156d8" d="M 179.5,112.5 C 186.022,112.177 192.355,112.51 198.5,113.5C 197.833,113.5 197.5,113.833 197.5,114.5C 178.301,125.263 159.301,136.263 140.5,147.5C 139.507,155.65 139.174,163.983 139.5,172.5C 136.5,172.5 133.5,172.5 130.5,172.5C 130.826,163.983 130.493,155.65 129.5,147.5C 110.833,136.5 92.1667,125.5 73.5,114.5C 79.31,113.51 85.31,113.177 91.5,113.5C 106.042,121.356 120.542,129.356 135,137.5C 149.953,129.276 164.786,120.943 179.5,112.5 Z"/></g>
<g><path style="opacity:0" fill="#010001" d="M 197.5,114.5 C 198.167,134.167 198.833,153.833 199.5,173.5C 199.762,174.978 199.429,176.311 198.5,177.5C 179.139,188.512 159.806,199.512 140.5,210.5C 140.5,198.167 140.5,185.833 140.5,173.5C 140.5,164.833 140.5,156.167 140.5,147.5C 159.301,136.263 178.301,125.263 197.5,114.5 Z"/></g>
<g><path style="opacity:1" fill="#000c20" d="M 197.5,114.5 C 197.5,113.833 197.833,113.5 198.5,113.5C 199.497,133.326 199.83,153.326 199.5,173.5C 198.833,153.833 198.167,134.167 197.5,114.5 Z"/></g>
<g><path style="opacity:1" fill="#2151b8" d="M 179.5,112.5 C 179.842,111.662 180.508,111.328 181.5,111.5C 191.167,111.5 200.833,111.5 210.5,111.5C 210.5,132.167 210.5,152.833 210.5,173.5C 206.833,173.5 203.167,173.5 199.5,173.5C 199.83,153.326 199.497,133.326 198.5,113.5C 192.355,112.51 186.022,112.177 179.5,112.5 Z"/></g>
<g><path style="opacity:1" fill="#0158de" d="M 200.5,112.5 C 203.5,112.5 206.5,112.5 209.5,112.5C 209.5,132.5 209.5,152.5 209.5,172.5C 206.5,172.5 203.5,172.5 200.5,172.5C 200.5,152.5 200.5,132.5 200.5,112.5 Z"/></g>
<g><path style="opacity:1" fill="#939393" d="M 228.5,129.5 C 228.735,128.903 229.235,128.57 230,128.5C 233.818,129.706 237.318,131.372 240.5,133.5C 236.302,132.733 232.302,131.399 228.5,129.5 Z"/></g>
<g><path style="opacity:1" fill="#fcfcfc" d="M 228.5,129.5 C 232.302,131.399 236.302,132.733 240.5,133.5C 245.105,136.296 250.105,138.296 255.5,139.5C 271.91,147.036 288.576,154.036 305.5,160.5C 306.172,161.267 307.005,161.934 308,162.5C 308.822,169.634 308.155,176.634 306,183.5C 261.014,216.46 247.348,259.46 265,312.5C 265.667,314.167 265.667,315.833 265,317.5C 244.253,331.457 223.419,345.291 202.5,359C 199.975,359.896 197.808,359.396 196,357.5C 165.385,315.884 134.385,274.55 103,233.5C 102.312,232.668 102.479,232.002 103.5,231.5C 114.401,235.093 125.401,237.76 136.5,239.5C 151.457,259.79 166.79,279.79 182.5,299.5C 186.767,303.554 190.934,303.221 195,298.5C 196.314,295.911 196.981,293.244 197,290.5C 182.71,272.542 168.044,254.875 153,237.5C 152.517,236.552 152.351,235.552 152.5,234.5C 179.161,229.189 199.495,215.022 213.5,192C 214.5,191.333 215.5,191.333 216.5,192C 222.015,194.923 227.682,197.59 233.5,200C 235.259,200.798 236.926,200.631 238.5,199.5C 246.606,179.893 260.106,165.226 279,155.5C 279.591,154.517 279.257,153.85 278,153.5C 260.494,146.621 243.327,139.287 226.5,131.5C 226.131,129.007 226.797,128.34 228.5,129.5 Z"/></g>
<g><path style="opacity:1" fill="#6c6c6c" d="M 240.5,133.5 C 245.895,134.704 250.895,136.704 255.5,139.5C 250.105,138.296 245.105,136.296 240.5,133.5 Z"/></g>
<g><path style="opacity:1" fill="#3f3f3f" d="M 255.5,139.5 C 271.579,145.369 287.579,151.536 303.5,158C 304.749,158.74 305.749,158.573 306.5,157.5C 307.043,157.56 307.376,157.893 307.5,158.5C 306.757,159.182 306.091,159.849 305.5,160.5C 288.576,154.036 271.91,147.036 255.5,139.5 Z"/></g>
<g><path style="opacity:1" fill="#1b43a8" d="M 129.5,147.5 C 130.493,155.65 130.826,163.983 130.5,172.5C 133.5,172.5 136.5,172.5 139.5,172.5C 139.174,163.983 139.507,155.65 140.5,147.5C 140.5,156.167 140.5,164.833 140.5,173.5C 136.833,173.5 133.167,173.5 129.5,173.5C 129.5,164.833 129.5,156.167 129.5,147.5 Z"/></g>
<g><path style="opacity:1" fill="#c8c8c8" d="M 306.5,157.5 C 305.749,158.573 304.749,158.74 303.5,158C 287.579,151.536 271.579,145.369 255.5,139.5C 250.895,136.704 245.895,134.704 240.5,133.5C 237.318,131.372 233.818,129.706 230,128.5C 229.235,128.57 228.735,128.903 228.5,129.5C 226.797,128.34 226.131,129.007 226.5,131.5C 225.035,129.314 224.702,126.981 225.5,124.5C 252.412,135.792 279.412,146.792 306.5,157.5 Z"/></g>
<g><path style="opacity:1" fill="#eeeeee" d="M 315.5,161.5 C 330.099,166.311 344.432,171.811 358.5,178C 345.094,177.652 331.76,176.319 318.5,174C 317.667,173.167 316.833,172.333 316,171.5C 315.502,168.183 315.335,164.85 315.5,161.5 Z"/></g>
<g><path style="opacity:1" fill="#e6161e" d="M 59.5,173.5 C 63.1667,173.5 66.8333,173.5 70.5,173.5C 70.238,174.978 70.5713,176.311 71.5,177.5C 90.888,188.524 110.221,199.524 129.5,210.5C 130.495,198.678 130.828,186.678 130.5,174.5C 133.5,174.5 136.5,174.5 139.5,174.5C 139.172,186.678 139.505,198.678 140.5,210.5C 159.806,199.512 179.139,188.512 198.5,177.5C 199.429,176.311 199.762,174.978 199.5,173.5C 203.167,173.5 206.833,173.5 210.5,173.5C 210.82,176.898 210.487,180.232 209.5,183.5C 184.732,197.967 159.899,212.3 135,226.5C 110.101,212.3 85.2677,197.967 60.5,183.5C 59.513,180.232 59.1796,176.898 59.5,173.5 Z"/></g>
<g><path style="opacity:1" fill="#bb121a" d="M 129.5,173.5 C 133.167,173.5 136.833,173.5 140.5,173.5C 140.5,185.833 140.5,198.167 140.5,210.5C 139.505,198.678 139.172,186.678 139.5,174.5C 136.5,174.5 133.5,174.5 130.5,174.5C 130.828,186.678 130.495,198.678 129.5,210.5C 129.5,198.167 129.5,185.833 129.5,173.5 Z"/></g>
<g><path style="opacity:1" fill="#f8f8f8" d="M 317.5,195.5 C 347.519,193.347 365.686,207.014 372,236.5C 374.814,268.065 364.314,294.232 340.5,315C 321.568,329.628 301.568,331.294 280.5,320C 270.093,311.59 263.926,300.757 262,287.5C 258.025,250.957 271.191,222.457 301.5,202C 306.744,199.315 312.077,197.148 317.5,195.5 Z"/></g>
<g><path style="opacity:1" fill="#0d0d0d" d="M 323.5,202.5 C 345.634,203.462 359.134,214.796 364,236.5C 366.449,264.823 357.282,288.657 336.5,308C 325.736,316.884 313.403,320.884 299.5,320C 285.868,316.523 277.202,308.356 273.5,295.5C 289.964,298.696 303.131,293.362 313,279.5C 323.852,264.445 326.518,248.111 321,230.5C 316.372,221.221 308.872,215.721 298.5,214C 300.846,210.999 303.846,209.999 307.5,211C 324.822,219.808 331.988,233.974 329,253.5C 325.775,274.806 314.608,290.306 295.5,300C 289.992,301.851 284.325,302.851 278.5,303C 286.185,310.06 295.185,312.393 305.5,310C 325.241,304.933 338.741,292.767 346,273.5C 353.875,255.775 353.208,238.442 344,221.5C 335.398,210.851 324.231,206.018 310.5,207C 314.715,204.763 319.048,203.263 323.5,202.5 Z"/></g>
<g><path style="opacity:1" fill="#1c1c1c" d="M 138.5,237.5 C 139.343,240.516 140.843,243.183 143,245.5C 157.43,262.755 171.263,280.422 184.5,298.5C 183.508,298.328 182.842,298.662 182.5,299.5C 166.79,279.79 151.457,259.79 136.5,239.5C 137.167,238.833 137.833,238.167 138.5,237.5 Z"/></g>
<g><path style="opacity:1" fill="#d1d1d1" d="M 138.5,237.5 C 153.136,254.977 167.636,272.644 182,290.5C 184.029,293.029 185.862,295.696 187.5,298.5C 186.575,299.562 185.575,299.562 184.5,298.5C 171.263,280.422 157.43,262.755 143,245.5C 140.843,243.183 139.343,240.516 138.5,237.5 Z"/></g>
<g><path style="opacity:1" fill="#f9f9f9" d="M 289.5,335.5 C 306.17,335.333 322.837,335.5 339.5,336C 340.804,336.804 341.471,337.971 341.5,339.5C 339.891,344.04 338.725,348.706 338,353.5C 337.535,354.931 336.701,356.097 335.5,357C 322.495,357.202 309.495,357.202 296.5,357C 285.949,365.06 275.282,372.893 264.5,380.5C 262.971,380.471 261.804,379.804 261,378.5C 258.921,374.007 256.588,369.674 254,365.5C 253.333,363.833 253.333,362.167 254,360.5C 266.163,352.514 277.996,344.18 289.5,335.5 Z"/></g>
<g><path style="opacity:1" fill="#fbfbfb" d="M 297.5,370.5 C 311.171,370.333 324.837,370.5 338.5,371C 339,371.5 339.5,372 340,372.5C 341.193,380.936 342.86,389.27 345,397.5C 345.998,401.473 346.331,405.473 346,409.5C 326.88,410.985 307.714,412.152 288.5,413C 281.804,405.105 275.471,396.938 269.5,388.5C 270.313,387.186 271.313,386.019 272.5,385C 280.896,380.14 289.23,375.307 297.5,370.5 Z"/></g>
</svg>
